<svg height="511pt" viewBox="-144 1 511 511.999" width="511pt" xmlns="http://www.w3.org/2000/svg"><path d="m112.089844 108.558594h44.433594v-36.355469h-88.867188v36.355469zm0 0" fill="#ddf5ff"/><path d="m133.296875 72.203125v36.355469h23.226563v-36.355469s-11.636719 0-23.226563 0zm0 0" fill="#c1e9f4"/><path d="m156.523438 108.558594 29.902343 17.742187c18.398438 10.914063 29.679688 30.71875 29.679688 52.109375v48.304688c0 2.789062-2.261719 5.046875-5.050781 5.046875-2.789063 0-5.046876 2.261719-5.046876 5.050781v33.324219c0 2.789062 2.261719 5.050781 5.046876 5.050781 2.789062 0 5.050781 2.257812 5.050781 5.046875v183.796875c0 22.308594-18.085938 40.394531-40.394531 40.394531h-127.242188c-22.308594 0-40.394531-18.085937-40.394531-40.394531v-183.792969c0-2.789062 2.261719-5.050781 5.050781-5.050781s5.046875-2.261719 5.046875-5.046875v-33.328125c0-2.789062-2.261719-5.046875-5.046875-5.046875-2.789062 0-5.050781-2.261719-5.050781-5.050781v-48.300782c0-21.390624 11.28125-41.199218 29.679687-52.113281l29.902344-17.738281h88.867188zm0 0" fill="#81b8fd"/><path d="m211.054688 231.761719c2.789062 0 5.050781-2.257813 5.050781-5.046875v-48.304688c0-21.390625-11.28125-41.195312-29.679688-52.109375l-29.902343-17.742187h-23.226563l29.902344 17.742187c18.398437 10.914063 29.679687 30.71875 29.679687 52.109375v48.304688c0 2.789062-2.261718 5.046875-5.050781 5.046875s-5.046875 2.261719-5.046875 5.050781v33.324219c0 2.789062 2.257812 5.050781 5.046875 5.050781s5.050781 2.257812 5.050781 5.046875v183.796875c0 22.308594-18.085937 40.394531-40.394531 40.394531h23.226563c22.308593 0 40.394531-18.085937 40.394531-40.394531v-183.792969c0-2.789062-2.261719-5.050781-5.050781-5.050781-2.789063 0-5.046876-2.261719-5.046876-5.046875v-33.328125c0-2.789062 2.257813-5.050781 5.046876-5.050781zm0 0" fill="#62a6fd"/><path d="m211.054688 231.761719c2.789062 0 5.050781-2.257813 5.050781-5.046875v-35.347656h-23.226563v35.347656c0 2.789062-2.261718 5.046875-5.050781 5.046875s-5.046875 2.261719-5.046875 5.050781v33.324219c0 2.789062 2.257812 5.050781 5.046875 5.050781s5.050781 2.257812 5.050781 5.046875v40.394531h23.226563v-40.394531c0-2.789063-2.261719-5.046875-5.050781-5.046875-2.789063 0-5.046876-2.261719-5.046876-5.050781v-33.324219c0-2.789062 2.257813-5.050781 5.046876-5.050781zm0 0" fill="#62a6fd"/><path d="m211.054688 231.761719c2.789062 0 5.050781-2.257813 5.050781-5.046875v-35.347656h-208.03125v35.347656c0 2.789062 2.261719 5.046875 5.046875 5.046875 2.789062 0 5.050781 2.261719 5.050781 5.050781v33.324219c0 2.789062-2.261719 5.050781-5.050781 5.050781-2.789063 0-5.046875 2.257812-5.046875 5.046875v40.394531h208.03125v-40.394531c0-2.789063-2.261719-5.046875-5.050781-5.046875-2.789063 0-5.046876-2.261719-5.046876-5.050781v-33.324219c0-2.789062 2.257813-5.050781 5.046876-5.050781zm0 0" fill="#ddf5ff"/><path d="m192.878906 226.714844c0 2.789062-2.261718 5.046875-5.050781 5.046875s-5.046875 2.261719-5.046875 5.050781v33.324219c0 2.789062 2.261719 5.050781 5.046875 5.050781 2.789063 0 5.050781 2.257812 5.050781 5.046875v40.394531h23.226563v-40.394531c0-2.789063-2.261719-5.046875-5.050781-5.046875-2.789063 0-5.046876-2.261719-5.046876-5.050781v-33.324219c0-2.789062 2.261719-5.050781 5.046876-5.050781 2.789062 0 5.050781-2.257813 5.050781-5.046875v-35.347656h-23.226563zm0 0" fill="#c1e9f4"/><path d="m59.578125 7.574219h105.023437v64.628906h-105.023437zm0 0" fill="#81b8fd"/><path d="m148.445312 7.574219v38.375c0 5.578125-4.523437 10.097656-10.101562 10.097656h-78.765625v16.160156h105.023437v-64.632812zm0 0" fill="#62a6fd"/><path d="m140.367188 268.117188c0 15.550781-12.730469 28.277343-28.277344 28.277343-15.550782 0-28.277344-12.726562-28.277344-28.277343 0-15.546876 28.277344-52.511719 28.277344-52.511719s28.277344 36.964843 28.277344 52.511719zm0 0" fill="#81b8fd"/><path d="m190.292969 119.785156-26.195313-15.539062v-24.46875h.503906c4.183594 0 7.574219-3.390625 7.574219-7.574219v-64.628906c0-4.183594-3.390625-7.574219-7.574219-7.574219h-105.023437c-4.183594 0-7.574219 3.390625-7.574219 7.574219v64.628906c0 4.183594 3.390625 7.574219 7.574219 7.574219h.503906v24.46875l-26.195312 15.539062c-20.59375 12.21875-33.386719 34.679688-33.386719 58.625v48.304688c0 6.09375 4.34375 11.195312 10.097656 12.367187v28.785157c-5.753906 1.171874-10.097656 6.273437-10.097656 12.367187v79.109375c0 4.179688 3.390625 7.570312 7.574219 7.570312 4.183593 0 7.574219-3.390624 7.574219-7.570312v-31.140625h192.882812v31.140625c0 4.179688 3.390625 7.570312 7.574219 7.570312 4.183593 0 7.574219-3.390624 7.574219-7.570312v-79.109375c0-6.09375-4.34375-11.195313-10.097657-12.367187v-28.785157c5.753907-1.171875 10.097657-6.273437 10.097657-12.367187v-48.304688c0-23.941406-12.792969-46.40625-33.386719-58.625zm-123.140625-104.636718h89.875v49.484374h-89.875zm81.796875 64.628906v21.207031h-73.71875v-21.207031zm-133.300781 233.28125v-30.550782c5.753906-1.171874 10.097656-6.273437 10.097656-12.371093v-33.324219c0-6.09375-4.34375-11.195312-10.097656-12.371094v-25.5h42.582031c4.183593 0 7.574219-3.390625 7.574219-7.574218 0-4.179688-3.390626-7.570313-7.574219-7.570313h-42.582031v-5.386719c0-18.621094 9.949218-36.09375 25.96875-45.597656l28.117187-16.679688h84.710937l28.117188 16.679688c16.019531 9.503906 25.96875 26.972656 25.96875 45.597656v5.386719h-115.09375c-4.183594 0-7.574219 3.390625-7.574219 7.570313 0 4.183593 3.390625 7.574218 7.574219 7.574218h115.09375v25.5c-5.753906 1.175782-10.097656 6.277344-10.097656 12.371094v33.324219c0 6.097656 4.34375 11.199219 10.097656 12.371093v30.550782zm0 0"/><path d="m216.105469 387.1875c-4.183594 0-7.574219 3.390625-7.574219 7.574219v69.269531c0 18.097656-14.722656 32.820312-32.820312 32.820312h-127.242188c-18.097656 0-32.820312-14.722656-32.820312-32.820312v-69.269531c0-4.183594-3.390626-7.574219-7.574219-7.574219-4.183594 0-7.574219 3.390625-7.574219 7.574219v69.269531c0 26.449219 21.519531 47.96875 47.96875 47.96875h127.242188c26.449218 0 47.96875-21.519531 47.96875-47.96875v-69.269531c0-4.183594-3.390626-7.574219-7.574219-7.574219zm0 0"/><path d="m112.089844 208.03125c-2.359375 0-4.582032 1.101562-6.015625 2.972656-4.984375 6.511719-29.835938 39.875-29.835938 57.113282 0 19.769531 16.082031 35.851562 35.851563 35.851562 19.769531 0 35.851562-16.082031 35.851562-35.851562 0-17.238282-24.855468-50.601563-29.835937-57.113282-1.433594-1.875-3.65625-2.972656-6.015625-2.972656zm0 80.789062c-11.414063 0-20.703125-9.285156-20.703125-20.703124 0-7.402344 10.71875-25.457032 20.703125-39.683594 9.984375 14.222656 20.703125 32.269531 20.703125 39.683594 0 11.417968-9.289063 20.703124-20.703125 20.703124zm0 0"/></svg>